<svg width="24" height="24" viewBox="0 0 24 24" fill="none" xmlns="http://www.w3.org/2000/svg">
<circle cx="12" cy="12" r="11.5" stroke="#94A3B8"/>
<g clip-path="url(#clip0_141_7)">
<ellipse cx="12" cy="19.3847" rx="7.38462" ry="3.69231" fill="#94A3B8"/>
<path d="M19.3846 20.307V18.4609C19.3846 17.4816 18.9956 16.5424 18.3032 15.85C17.6108 15.1576 16.6716 14.7686 15.6923 14.7686H8.30773C7.32846 14.7686 6.38931 15.1576 5.69687 15.85C5.00443 16.5424 4.61542 17.4816 4.61542 18.4609V20.307" fill="#94A3B8"/>
<path d="M19.3846 20.307V18.4609C19.3846 17.4816 18.9956 16.5424 18.3032 15.85C17.6108 15.1576 16.6716 14.7686 15.6923 14.7686H8.30773C7.32846 14.7686 6.38931 15.1576 5.69687 15.85C5.00443 16.5424 4.61542 17.4816 4.61542 18.4609V20.307" stroke="#94A3B8" stroke-width="2" stroke-linecap="round" stroke-linejoin="round"/>
<path d="M12 11.077C14.0393 11.077 15.6924 9.4239 15.6924 7.38469C15.6924 5.34549 14.0393 3.69238 12 3.69238C9.96084 3.69238 8.30774 5.34549 8.30774 7.38469C8.30774 9.4239 9.96084 11.077 12 11.077Z" fill="#94A3B8" stroke="#94A3B8" stroke-width="2" stroke-linecap="round" stroke-linejoin="round"/>
</g>
<defs>
<clipPath id="clip0_141_7">
<rect width="22.1538" height="22.1538" fill="white" transform="translate(0.923096 0.922852)"/>
</clipPath>
</defs>
</svg>
